<?xml version="1.0" encoding="UTF-8" standalone="no"?>
<!DOCTYPE svg PUBLIC "-//W3C//DTD SVG 1.1//EN"
 "http://www.w3.org/Graphics/SVG/1.1/DTD/svg11.dtd">
<!-- Generated by graphviz version 2.38.0 (20140413.2041)
 -->
<!-- Title: snakemake_dag Pages: 1 -->
<svg width="573pt" height="548pt"
 viewBox="0.00 0.00 573.00 548.00" xmlns="http://www.w3.org/2000/svg" xmlns:xlink="http://www.w3.org/1999/xlink">
<g id="graph0" class="graph" transform="scale(1 1) rotate(0) translate(4 544)">
<title>snakemake_dag</title>
<polygon fill="white" stroke="none" points="-4,4 -4,-544 569,-544 569,4 -4,4"/>
<!-- 0 -->
<g id="node1" class="node"><title>0</title>
<path fill="none" stroke="#d8b456" stroke-width="2" d="M297,-36C297,-36 267,-36 267,-36 261,-36 255,-30 255,-24 255,-24 255,-12 255,-12 255,-6 261,-0 267,-0 267,-0 297,-0 297,-0 303,-0 309,-6 309,-12 309,-12 309,-24 309,-24 309,-30 303,-36 297,-36"/>
<text text-anchor="middle" x="282" y="-15.5" font-family="sans" font-size="10.00">all</text>
</g>
<!-- 1 -->
<g id="node2" class="node"><title>1</title>
<path fill="none" stroke="#56d8c9" stroke-width="2" d="M321,-108C321,-108 243,-108 243,-108 237,-108 231,-102 231,-96 231,-96 231,-84 231,-84 231,-78 237,-72 243,-72 243,-72 321,-72 321,-72 327,-72 333,-78 333,-84 333,-84 333,-96 333,-96 333,-102 327,-108 321,-108"/>
<text text-anchor="middle" x="282" y="-87.5" font-family="sans" font-size="10.00">merge_family_fasta</text>
</g>
<!-- 1&#45;&gt;0 -->
<g id="edge1" class="edge"><title>1&#45;&gt;0</title>
<path fill="none" stroke="grey" stroke-width="2" d="M282,-71.6966C282,-63.9827 282,-54.7125 282,-46.1124"/>
<polygon fill="grey" stroke="grey" stroke-width="2" points="285.5,-46.1043 282,-36.1043 278.5,-46.1044 285.5,-46.1043"/>
</g>
<!-- 2 -->
<g id="node3" class="node"><title>2</title>
<path fill="none" stroke="#56b1d8" stroke-width="2" d="M261,-180C261,-180 215,-180 215,-180 209,-180 203,-174 203,-168 203,-168 203,-156 203,-156 203,-150 209,-144 215,-144 215,-144 261,-144 261,-144 267,-144 273,-150 273,-156 273,-156 273,-168 273,-168 273,-174 267,-180 261,-180"/>
<text text-anchor="middle" x="238" y="-159.5" font-family="sans" font-size="10.00">family_fasta</text>
</g>
<!-- 2&#45;&gt;1 -->
<g id="edge2" class="edge"><title>2&#45;&gt;1</title>
<path fill="none" stroke="grey" stroke-width="2" d="M248.876,-143.697C253.992,-135.559 260.195,-125.689 265.845,-116.701"/>
<polygon fill="grey" stroke="grey" stroke-width="2" points="268.89,-118.433 271.249,-108.104 262.964,-114.708 268.89,-118.433"/>
</g>
<!-- 3 -->
<g id="node4" class="node"><title>3</title>
<path fill="none" stroke="#56b1d8" stroke-width="2" d="M349,-180C349,-180 303,-180 303,-180 297,-180 291,-174 291,-168 291,-168 291,-156 291,-156 291,-150 297,-144 303,-144 303,-144 349,-144 349,-144 355,-144 361,-150 361,-156 361,-156 361,-168 361,-168 361,-174 355,-180 349,-180"/>
<text text-anchor="middle" x="326" y="-159.5" font-family="sans" font-size="10.00">family_fasta</text>
</g>
<!-- 3&#45;&gt;1 -->
<g id="edge3" class="edge"><title>3&#45;&gt;1</title>
<path fill="none" stroke="grey" stroke-width="2" d="M315.124,-143.697C310.008,-135.559 303.805,-125.689 298.155,-116.701"/>
<polygon fill="grey" stroke="grey" stroke-width="2" points="301.036,-114.708 292.751,-108.104 295.11,-118.433 301.036,-114.708"/>
</g>
<!-- 4 -->
<g id="node5" class="node"><title>4</title>
<path fill="none" stroke="#d85656" stroke-width="2" stroke-dasharray="5,2" d="M150,-252C150,-252 70,-252 70,-252 64,-252 58,-246 58,-240 58,-240 58,-228 58,-228 58,-222 64,-216 70,-216 70,-216 150,-216 150,-216 156,-216 162,-222 162,-228 162,-228 162,-240 162,-240 162,-246 156,-252 150,-252"/>
<text text-anchor="middle" x="110" y="-231.5" font-family="sans" font-size="10.00">hmmsearch_second</text>
</g>
<!-- 4&#45;&gt;2 -->
<g id="edge4" class="edge"><title>4&#45;&gt;2</title>
<path fill="none" stroke="grey" stroke-width="2" d="M141.312,-215.876C158.203,-206.639 179.247,-195.131 197.385,-185.212"/>
<polygon fill="grey" stroke="grey" stroke-width="2" points="199.473,-188.059 206.567,-180.19 196.114,-181.917 199.473,-188.059"/>
</g>
<!-- 5 -->
<g id="node6" class="node"><title>5</title>
<path fill="none" stroke="#d88556" stroke-width="2" d="M332.5,-252C332.5,-252 231.5,-252 231.5,-252 225.5,-252 219.5,-246 219.5,-240 219.5,-240 219.5,-228 219.5,-228 219.5,-222 225.5,-216 231.5,-216 231.5,-216 332.5,-216 332.5,-216 338.5,-216 344.5,-222 344.5,-228 344.5,-228 344.5,-240 344.5,-240 344.5,-246 338.5,-252 332.5,-252"/>
<text text-anchor="middle" x="282" y="-231.5" font-family="sans" font-size="10.00">InterProScan_run_merge</text>
</g>
<!-- 5&#45;&gt;2 -->
<g id="edge5" class="edge"><title>5&#45;&gt;2</title>
<path fill="none" stroke="grey" stroke-width="2" d="M271.124,-215.697C266.008,-207.559 259.805,-197.689 254.155,-188.701"/>
<polygon fill="grey" stroke="grey" stroke-width="2" points="257.036,-186.708 248.751,-180.104 251.11,-190.433 257.036,-186.708"/>
</g>
<!-- 5&#45;&gt;3 -->
<g id="edge7" class="edge"><title>5&#45;&gt;3</title>
<path fill="none" stroke="grey" stroke-width="2" d="M292.876,-215.697C297.992,-207.559 304.195,-197.689 309.845,-188.701"/>
<polygon fill="grey" stroke="grey" stroke-width="2" points="312.89,-190.433 315.249,-180.104 306.964,-186.708 312.89,-190.433"/>
</g>
<!-- 6 -->
<g id="node7" class="node"><title>6</title>
<path fill="none" stroke="#d85656" stroke-width="2" stroke-dasharray="5,2" d="M494,-252C494,-252 414,-252 414,-252 408,-252 402,-246 402,-240 402,-240 402,-228 402,-228 402,-222 408,-216 414,-216 414,-216 494,-216 494,-216 500,-216 506,-222 506,-228 506,-228 506,-240 506,-240 506,-246 500,-252 494,-252"/>
<text text-anchor="middle" x="454" y="-231.5" font-family="sans" font-size="10.00">hmmsearch_second</text>
</g>
<!-- 6&#45;&gt;3 -->
<g id="edge6" class="edge"><title>6&#45;&gt;3</title>
<path fill="none" stroke="grey" stroke-width="2" d="M422.688,-215.876C405.797,-206.639 384.753,-195.131 366.615,-185.212"/>
<polygon fill="grey" stroke="grey" stroke-width="2" points="367.886,-181.917 357.433,-180.19 364.527,-188.059 367.886,-181.917"/>
</g>
<!-- 7 -->
<g id="node8" class="node"><title>7</title>
<path fill="none" stroke="#56d86b" stroke-width="2" stroke-dasharray="5,2" d="M132,-324C132,-324 12,-324 12,-324 6,-324 0,-318 0,-312 0,-312 0,-300 0,-300 0,-294 6,-288 12,-288 12,-288 132,-288 132,-288 138,-288 144,-294 144,-300 144,-300 144,-312 144,-312 144,-318 138,-324 132,-324"/>
<text text-anchor="middle" x="72" y="-303.5" font-family="sans" font-size="10.00">hmmsearch_first_fa_clustalw</text>
</g>
<!-- 7&#45;&gt;4 -->
<g id="edge8" class="edge"><title>7&#45;&gt;4</title>
<path fill="none" stroke="grey" stroke-width="2" d="M81.3933,-287.697C85.7649,-279.644 91.0573,-269.894 95.8953,-260.982"/>
<polygon fill="grey" stroke="grey" stroke-width="2" points="99.0198,-262.563 100.715,-252.104 92.8678,-259.223 99.0198,-262.563"/>
</g>
<!-- 8 -->
<g id="node9" class="node"><title>8</title>
<path fill="none" stroke="#5682d8" stroke-width="2" stroke-dasharray="5,2" d="M390.5,-324C390.5,-324 303.5,-324 303.5,-324 297.5,-324 291.5,-318 291.5,-312 291.5,-312 291.5,-300 291.5,-300 291.5,-294 297.5,-288 303.5,-288 303.5,-288 390.5,-288 390.5,-288 396.5,-288 402.5,-294 402.5,-300 402.5,-300 402.5,-312 402.5,-312 402.5,-318 396.5,-324 390.5,-324"/>
<text text-anchor="middle" x="347" y="-309" font-family="sans" font-size="10.00">InterProScan_run</text>
<text text-anchor="middle" x="347" y="-298" font-family="sans" font-size="10.00">Domain_ID: PF00046</text>
</g>
<!-- 8&#45;&gt;5 -->
<g id="edge9" class="edge"><title>8&#45;&gt;5</title>
<path fill="none" stroke="grey" stroke-width="2" d="M330.933,-287.697C323.061,-279.22 313.445,-268.864 304.827,-259.583"/>
<polygon fill="grey" stroke="grey" stroke-width="2" points="307.252,-257.051 297.883,-252.104 302.122,-261.814 307.252,-257.051"/>
</g>
<!-- 9 -->
<g id="node10" class="node"><title>9</title>
<path fill="none" stroke="#5682d8" stroke-width="2" stroke-dasharray="5,2" d="M261.5,-324C261.5,-324 174.5,-324 174.5,-324 168.5,-324 162.5,-318 162.5,-312 162.5,-312 162.5,-300 162.5,-300 162.5,-294 168.5,-288 174.5,-288 174.5,-288 261.5,-288 261.5,-288 267.5,-288 273.5,-294 273.5,-300 273.5,-300 273.5,-312 273.5,-312 273.5,-318 267.5,-324 261.5,-324"/>
<text text-anchor="middle" x="218" y="-309" font-family="sans" font-size="10.00">InterProScan_run</text>
<text text-anchor="middle" x="218" y="-298" font-family="sans" font-size="10.00">Domain_ID: PF00847</text>
</g>
<!-- 9&#45;&gt;5 -->
<g id="edge10" class="edge"><title>9&#45;&gt;5</title>
<path fill="none" stroke="grey" stroke-width="2" d="M233.82,-287.697C241.57,-279.22 251.039,-268.864 259.524,-259.583"/>
<polygon fill="grey" stroke="grey" stroke-width="2" points="262.197,-261.846 266.362,-252.104 257.031,-257.123 262.197,-261.846"/>
</g>
<!-- 10 -->
<g id="node11" class="node"><title>10</title>
<path fill="none" stroke="#56d86b" stroke-width="2" stroke-dasharray="5,2" d="M553,-324C553,-324 433,-324 433,-324 427,-324 421,-318 421,-312 421,-312 421,-300 421,-300 421,-294 427,-288 433,-288 433,-288 553,-288 553,-288 559,-288 565,-294 565,-300 565,-300 565,-312 565,-312 565,-318 559,-324 553,-324"/>
<text text-anchor="middle" x="493" y="-303.5" font-family="sans" font-size="10.00">hmmsearch_first_fa_clustalw</text>
</g>
<!-- 10&#45;&gt;6 -->
<g id="edge11" class="edge"><title>10&#45;&gt;6</title>
<path fill="none" stroke="grey" stroke-width="2" d="M483.36,-287.697C478.873,-279.644 473.441,-269.894 468.476,-260.982"/>
<polygon fill="grey" stroke="grey" stroke-width="2" points="471.454,-259.137 463.53,-252.104 465.339,-262.544 471.454,-259.137"/>
</g>
<!-- 11 -->
<g id="node12" class="node"><title>11</title>
<path fill="none" stroke="#9fd856" stroke-width="2" stroke-dasharray="5,2" d="M111.5,-396C111.5,-396 32.5,-396 32.5,-396 26.5,-396 20.5,-390 20.5,-384 20.5,-384 20.5,-372 20.5,-372 20.5,-366 26.5,-360 32.5,-360 32.5,-360 111.5,-360 111.5,-360 117.5,-360 123.5,-366 123.5,-372 123.5,-372 123.5,-384 123.5,-384 123.5,-390 117.5,-396 111.5,-396"/>
<text text-anchor="middle" x="72" y="-375.5" font-family="sans" font-size="10.00">hmmsearch_first_fa</text>
</g>
<!-- 11&#45;&gt;7 -->
<g id="edge12" class="edge"><title>11&#45;&gt;7</title>
<path fill="none" stroke="grey" stroke-width="2" d="M72,-359.697C72,-351.983 72,-342.712 72,-334.112"/>
<polygon fill="grey" stroke="grey" stroke-width="2" points="75.5001,-334.104 72,-324.104 68.5001,-334.104 75.5001,-334.104"/>
</g>
<!-- 12 -->
<g id="node13" class="node"><title>12</title>
<path fill="none" stroke="#56d89a" stroke-width="2" stroke-dasharray="5,2" d="M322,-396C322,-396 242,-396 242,-396 236,-396 230,-390 230,-384 230,-384 230,-372 230,-372 230,-366 236,-360 242,-360 242,-360 322,-360 322,-360 328,-360 334,-366 334,-372 334,-372 334,-384 334,-384 334,-390 328,-396 322,-396"/>
<text text-anchor="middle" x="282" y="-375.5" font-family="sans" font-size="10.00">InterProScan_install</text>
</g>
<!-- 12&#45;&gt;8 -->
<g id="edge13" class="edge"><title>12&#45;&gt;8</title>
<path fill="none" stroke="grey" stroke-width="2" d="M298.067,-359.697C305.939,-351.22 315.555,-340.864 324.173,-331.583"/>
<polygon fill="grey" stroke="grey" stroke-width="2" points="326.878,-333.814 331.117,-324.104 321.748,-329.051 326.878,-333.814"/>
</g>
<!-- 12&#45;&gt;9 -->
<g id="edge14" class="edge"><title>12&#45;&gt;9</title>
<path fill="none" stroke="grey" stroke-width="2" d="M266.18,-359.697C258.43,-351.22 248.961,-340.864 240.476,-331.583"/>
<polygon fill="grey" stroke="grey" stroke-width="2" points="242.969,-329.123 233.638,-324.104 237.803,-333.846 242.969,-329.123"/>
</g>
<!-- 13 -->
<g id="node14" class="node"><title>13</title>
<path fill="none" stroke="#9fd856" stroke-width="2" stroke-dasharray="5,2" d="M532.5,-396C532.5,-396 453.5,-396 453.5,-396 447.5,-396 441.5,-390 441.5,-384 441.5,-384 441.5,-372 441.5,-372 441.5,-366 447.5,-360 453.5,-360 453.5,-360 532.5,-360 532.5,-360 538.5,-360 544.5,-366 544.5,-372 544.5,-372 544.5,-384 544.5,-384 544.5,-390 538.5,-396 532.5,-396"/>
<text text-anchor="middle" x="493" y="-375.5" font-family="sans" font-size="10.00">hmmsearch_first_fa</text>
</g>
<!-- 13&#45;&gt;10 -->
<g id="edge15" class="edge"><title>13&#45;&gt;10</title>
<path fill="none" stroke="grey" stroke-width="2" d="M493,-359.697C493,-351.983 493,-342.712 493,-334.112"/>
<polygon fill="grey" stroke="grey" stroke-width="2" points="496.5,-334.104 493,-324.104 489.5,-334.104 496.5,-334.104"/>
</g>
<!-- 14 -->
<g id="node15" class="node"><title>14</title>
<path fill="none" stroke="#ced856" stroke-width="2" stroke-dasharray="5,2" d="M104.5,-468C104.5,-468 39.5,-468 39.5,-468 33.5,-468 27.5,-462 27.5,-456 27.5,-456 27.5,-444 27.5,-444 27.5,-438 33.5,-432 39.5,-432 39.5,-432 104.5,-432 104.5,-432 110.5,-432 116.5,-438 116.5,-444 116.5,-444 116.5,-456 116.5,-456 116.5,-462 110.5,-468 104.5,-468"/>
<text text-anchor="middle" x="72" y="-447.5" font-family="sans" font-size="10.00">hmmsearch_first</text>
</g>
<!-- 14&#45;&gt;11 -->
<g id="edge16" class="edge"><title>14&#45;&gt;11</title>
<path fill="none" stroke="grey" stroke-width="2" d="M72,-431.697C72,-423.983 72,-414.712 72,-406.112"/>
<polygon fill="grey" stroke="grey" stroke-width="2" points="75.5001,-406.104 72,-396.104 68.5001,-406.104 75.5001,-406.104"/>
</g>
<!-- 15 -->
<g id="node16" class="node"><title>15</title>
<path fill="none" stroke="#ced856" stroke-width="2" stroke-dasharray="5,2" d="M525.5,-468C525.5,-468 460.5,-468 460.5,-468 454.5,-468 448.5,-462 448.5,-456 448.5,-456 448.5,-444 448.5,-444 448.5,-438 454.5,-432 460.5,-432 460.5,-432 525.5,-432 525.5,-432 531.5,-432 537.5,-438 537.5,-444 537.5,-444 537.5,-456 537.5,-456 537.5,-462 531.5,-468 525.5,-468"/>
<text text-anchor="middle" x="493" y="-447.5" font-family="sans" font-size="10.00">hmmsearch_first</text>
</g>
<!-- 15&#45;&gt;13 -->
<g id="edge17" class="edge"><title>15&#45;&gt;13</title>
<path fill="none" stroke="grey" stroke-width="2" d="M493,-431.697C493,-423.983 493,-414.712 493,-406.112"/>
<polygon fill="grey" stroke="grey" stroke-width="2" points="496.5,-406.104 493,-396.104 489.5,-406.104 496.5,-406.104"/>
</g>
<!-- 16 -->
<g id="node17" class="node"><title>16</title>
<path fill="none" stroke="#70d856" stroke-width="2" stroke-dasharray="5,2" d="M115.5,-540C115.5,-540 28.5,-540 28.5,-540 22.5,-540 16.5,-534 16.5,-528 16.5,-528 16.5,-516 16.5,-516 16.5,-510 22.5,-504 28.5,-504 28.5,-504 115.5,-504 115.5,-504 121.5,-504 127.5,-510 127.5,-516 127.5,-516 127.5,-528 127.5,-528 127.5,-534 121.5,-540 115.5,-540"/>
<text text-anchor="middle" x="72" y="-525" font-family="sans" font-size="10.00">Download_Pfam</text>
<text text-anchor="middle" x="72" y="-514" font-family="sans" font-size="10.00">Domain_ID: PF00046</text>
</g>
<!-- 16&#45;&gt;14 -->
<g id="edge18" class="edge"><title>16&#45;&gt;14</title>
<path fill="none" stroke="grey" stroke-width="2" d="M72,-503.697C72,-495.983 72,-486.712 72,-478.112"/>
<polygon fill="grey" stroke="grey" stroke-width="2" points="75.5001,-478.104 72,-468.104 68.5001,-478.104 75.5001,-478.104"/>
</g>
<!-- 17 -->
<g id="node18" class="node"><title>17</title>
<path fill="none" stroke="#70d856" stroke-width="2" stroke-dasharray="5,2" d="M536.5,-540C536.5,-540 449.5,-540 449.5,-540 443.5,-540 437.5,-534 437.5,-528 437.5,-528 437.5,-516 437.5,-516 437.5,-510 443.5,-504 449.5,-504 449.5,-504 536.5,-504 536.5,-504 542.5,-504 548.5,-510 548.5,-516 548.5,-516 548.5,-528 548.5,-528 548.5,-534 542.5,-540 536.5,-540"/>
<text text-anchor="middle" x="493" y="-525" font-family="sans" font-size="10.00">Download_Pfam</text>
<text text-anchor="middle" x="493" y="-514" font-family="sans" font-size="10.00">Domain_ID: PF00847</text>
</g>
<!-- 17&#45;&gt;15 -->
<g id="edge19" class="edge"><title>17&#45;&gt;15</title>
<path fill="none" stroke="grey" stroke-width="2" d="M493,-503.697C493,-495.983 493,-486.712 493,-478.112"/>
<polygon fill="grey" stroke="grey" stroke-width="2" points="496.5,-478.104 493,-468.104 489.5,-478.104 496.5,-478.104"/>
</g>
</g>
</svg>
